<?xml version="1.0" encoding="UTF-8" standalone="no"?>
<svg
   xmlns:dc="http://purl.org/dc/elements/1.1/"
   xmlns:cc="http://creativecommons.org/ns#"
   xmlns:rdf="http://www.w3.org/1999/02/22-rdf-syntax-ns#"
   xmlns:svg="http://www.w3.org/2000/svg"
   xmlns="http://www.w3.org/2000/svg"
   xmlns:sodipodi="http://sodipodi.sourceforge.net/DTD/sodipodi-0.dtd"
   xmlns:inkscape="http://www.inkscape.org/namespaces/inkscape"
   version="1.1"
   id="svg7"
   sodipodi:docname="cog.svg"
   inkscape:version="0.92.4 5da689c313, 2019-01-14"
   width="12.004433"
   height="12.197083"><sodipodi:namedview
   pagecolor="#ffffff"
   bordercolor="#666666"
   borderopacity="1"
   objecttolerance="10"
   gridtolerance="10"
   guidetolerance="10"
   inkscape:pageopacity="0"
   inkscape:pageshadow="2"
   inkscape:window-width="1920"
   inkscape:window-height="1141"
   id="namedview9"
   showgrid="false"
   inkscape:zoom="53.400704"
   inkscape:cx="4.9134101"
   inkscape:cy="9.0651423"
   inkscape:window-x="0"
   inkscape:window-y="30"
   inkscape:window-maximized="1"
   inkscape:current-layer="svg7" />


   inkscape:version=&quot;0.92.4 5da689c313, 2019-01-14&quot;&gt;
  <defs
   id="defs12" />
<style
   type="text/css"
   id="current-color-scheme">
	  .ColorScheme-Text {
	  color:#232629;
	  }
  </style>
<metadata
   id="metadata2">
  <rdf:RDF>
    <cc:Work
       rdf:about="">
      <dc:format>image/svg+xml</dc:format>
      <dc:type
         rdf:resource="http://purl.org/dc/dcmitype/StillImage" />
    </cc:Work>
  </rdf:RDF>
</metadata>
<g
   transform="matrix(9.3237159e-4,0,0,-9.4305993e-4,-0.0024143,12.198655)"
   id="g6"
   style="fill:#171a1d;fill-opacity:1;stroke:none">
  <path
     d="m 5975,12749 c -86,-6 -144,-14 -151,-22 -6,-6 -41,-111 -77,-232 -37,-121 -107,-355 -157,-520 -50,-165 -123,-406 -162,-536 l -71,-237 -188,-46 c -213,-52 -475,-135 -658,-208 -68,-27 -130,-47 -137,-44 -7,3 -301,221 -653,485 -353,265 -644,481 -649,481 -13,0 -256,-149 -392,-240 -197,-132 -358,-253 -578,-436 l -25,-21 271,-746 c 150,-411 272,-752 272,-758 0,-6 -40,-56 -88,-112 -175,-202 -337,-420 -457,-615 -32,-52 -64,-96 -72,-99 -8,-3 -366,4 -796,16 -430,12 -794,21 -808,21 -23,0 -30,-9 -56,-67 C 282,8676 201,8460 141,8275 80,8089 -4,7781 3,7773 c 2,-2 303,-204 668,-448 562,-377 665,-450 670,-473 3,-15 1,-72 -4,-127 -8,-99 -2,-525 11,-702 l 7,-92 -669,-448 C 319,5237 14,5033 9,5030 c -9,-6 23,-147 72,-320 71,-249 180,-554 284,-794 l 16,-39 137,6 c 75,4 440,14 810,24 l 673,17 25,-29 c 13,-17 68,-95 120,-174 113,-169 222,-314 350,-467 l 93,-111 -275,-752 c -151,-414 -274,-757 -272,-761 5,-14 213,-185 361,-296 225,-170 606,-418 631,-412 7,2 299,219 649,482 l 637,479 47,-15 c 27,-9 84,-30 128,-48 183,-74 392,-141 619,-200 81,-21 150,-40 151,-42 2,-2 74,-237 160,-523 86,-286 190,-630 230,-764 41,-134 78,-247 82,-251 16,-14 266,-31 543,-37 313,-6 677,9 696,30 6,7 41,111 77,232 37,121 107,355 157,520 50,165 123,406 162,536 l 71,237 188,46 c 213,52 475,135 658,208 68,27 130,47 137,44 7,-3 301,-221 653,-485 353,-265 644,-481 649,-481 13,0 256,149 392,240 197,132 358,253 578,436 l 25,21 -271,746 c -150,411 -272,752 -272,758 0,6 40,56 88,112 175,202 337,420 457,615 32,52 64,96 72,99 8,3 366,-4 796,-16 430,-12 794,-21 808,-21 23,0 30,9 56,68 61,136 142,352 202,537 61,186 145,494 138,502 -2,2 -303,204 -668,448 -562,377 -665,450 -670,473 -3,15 -1,72 4,127 8,99 2,527 -11,702 l -7,92 669,448 c 367,246 672,450 677,453 9,6 -23,147 -72,320 -71,249 -180,554 -284,794 l -16,39 -137,-6 c -75,-4 -440,-14 -810,-24 l -673,-17 -25,29 c -13,17 -68,95 -120,174 -113,169 -222,314 -350,467 l -93,111 275,752 c 151,414 274,757 272,761 -5,14 -213,185 -361,296 -225,170 -606,418 -631,412 -7,-2 -299,-219 -649,-482 l -637,-479 -47,15 c -27,9 -84,30 -128,48 -183,74 -392,141 -619,200 -81,21 -150,40 -151,42 -2,2 -74,237 -160,523 -86,286 -190,630 -230,764 -41,134 -78,247 -82,251 -31,28 -804,48 -1088,29 z M 8210,9839 c 77,-36 121,-77 161,-151 31,-58 34,-70 34,-153 0,-79 -4,-97 -28,-147 -32,-65 -95,-125 -165,-159 -70,-34 -198,-38 -274,-9 -259,97 -294,456 -58,598 75,45 102,52 195,49 62,-2 93,-8 135,-28 z M 6642,8405 c 505,-59 923,-259 1274,-609 215,-216 351,-422 464,-705 78,-196 122,-403 140,-658 10,-128 9,-170 -5,-270 -45,-333 -152,-618 -334,-890 -437,-654 -1225,-1012 -2023,-918 -505,59 -923,259 -1274,609 -215,216 -351,422 -464,705 -78,196 -122,403 -140,658 -10,128 -9,170 5,270 33,241 90,435 190,639 274,563 772,963 1390,1119 244,62 523,80 777,50 z M 3294,8271 c 145,-71 225,-237 183,-382 -46,-157 -176,-253 -342,-252 -194,2 -334,143 -337,338 -3,248 267,409 496,296 z M 9783,5104 c 131,-46 217,-172 219,-320 0,-64 -4,-83 -31,-138 -37,-75 -92,-128 -170,-164 -81,-38 -202,-38 -282,-1 -79,37 -133,90 -171,167 -28,57 -33,77 -33,142 0,65 5,85 33,142 79,160 263,233 435,172 z M 4864,3539 c 73,-27 148,-96 183,-167 24,-49 28,-69 28,-147 0,-73 -4,-98 -23,-136 -34,-70 -84,-122 -154,-160 -59,-32 -69,-34 -158,-34 -81,0 -103,4 -150,26 -76,36 -121,77 -159,149 -98,183 -12,400 187,472 67,24 177,23 246,-3 z"
     id="path4"
     inkscape:connector-curvature="0"
     style="fill:#171a1d;fill-opacity:1" />
</g>
</svg>
