<?xml version="1.0" encoding="UTF-8" standalone="no"?>
<svg
   xmlns:dc="http://purl.org/dc/elements/1.1/"
   xmlns:cc="http://creativecommons.org/ns#"
   xmlns:rdf="http://www.w3.org/1999/02/22-rdf-syntax-ns#"
   xmlns:svg="http://www.w3.org/2000/svg"
   xmlns="http://www.w3.org/2000/svg"
   xmlns:sodipodi="http://sodipodi.sourceforge.net/DTD/sodipodi-0.dtd"
   xmlns:inkscape="http://www.inkscape.org/namespaces/inkscape"
   viewBox="0 0 32 32"
   version="1.1"
   id="svg5"
   sodipodi:docname="gear.svg"
   inkscape:version="0.92.4 5da689c313, 2019-01-14">
  <metadata
     id="metadata9">
    <rdf:RDF>
      <cc:Work
         rdf:about="">
        <dc:format>image/svg+xml</dc:format>
        <dc:type
           rdf:resource="http://purl.org/dc/dcmitype/StillImage" />
      </cc:Work>
    </rdf:RDF>
  </metadata>
  <sodipodi:namedview
     pagecolor="#ffffff"
     bordercolor="#666666"
     borderopacity="1"
     objecttolerance="10"
     gridtolerance="10"
     guidetolerance="10"
     inkscape:pageopacity="0"
     inkscape:pageshadow="2"
     inkscape:window-width="1920"
     inkscape:window-height="1103"
     id="namedview7"
     showgrid="false"
     inkscape:zoom="22.627417"
     inkscape:cx="-7.556354"
     inkscape:cy="14.752389"
     inkscape:window-x="0"
     inkscape:window-y="24"
     inkscape:window-maximized="1"
     inkscape:current-layer="svg5" />
  <defs
     id="defs3051">
    <style
       type="text/css"
       id="current-color-scheme">
      .ColorScheme-Text {
        color:#232629;
      }
      </style>
  </defs>
  <path
     style="display:inline;fill:#232629;fill-opacity:1;stroke-width:0.73950565"
     d="m 14.496457,5.3456144 c -0.107592,-0.00892 -0.181563,-0.00438 -0.302139,0.017399 -1.909854,0.3448853 -0.835054,2.7380384 -2.461616,3.7847531 -1.643055,1.0573275 -3.4483854,-0.7279097 -4.563052,0.8653515 -1.1034773,1.577269 1.3417557,2.434938 0.9412182,4.31069 -0.4045989,1.894772 -2.7902449,1.900163 -2.4374019,3.804994 0.3493012,1.885708 2.5248187,0.778511 3.5849351,2.38451 1.0708676,1.622285 -0.5281821,3.412999 1.0854786,4.513575 1.597465,1.089528 2.258435,-1.331489 4.158204,-0.936015 1.919032,0.399483 1.657827,2.405566 3.587048,2.057183 1.909852,-0.344885 1.053015,-2.143545 2.679577,-3.190258 1.643056,-1.057327 3.389518,1.117163 4.504186,-0.476098 1.103475,-1.57727 -1.280703,-2.824194 -0.880167,-4.699945 0.4046,-1.894772 2.700149,-1.673687 2.347304,-3.578518 C 26.390733,12.317527 24.305312,13.19825 23.245196,11.592251 22.17433,9.9699663 24.347756,8.4169315 22.734093,7.3163565 21.136631,6.2268294 19.901283,8.410165 18.001515,8.0146911 16.20242,7.640175 16.110431,5.479427 14.496457,5.3456144 Z m 1.844515,7.8722646 c 1.591209,0.06274 3.005515,1.269797 2.958198,3.164102 -0.04766,2.002829 -1.774106,2.771067 -3.036323,2.771301 -1.262217,-2.34e-4 -3.035539,-1.096597 -2.98945,-2.849426 -0.15669,-1.47243 1.257616,-3.101366 3.067575,-3.085977 z"
     id="path17"
     inkscape:connector-curvature="0"
     sodipodi:nodetypes="ssssssssssssssssssccccc" />
</svg>
